<?xml version="1.0" encoding="UTF-8"?>
<svg id="Layer_1" xmlns="http://www.w3.org/2000/svg" version="1.1" viewBox="0 0 1916.53 1026.45">
  <!-- Generator: Adobe Illustrator 29.8.2, SVG Export Plug-In . SVG Version: 2.1.1 Build 3)  -->
  <defs>
    <style>
      .st0 {
        fill: none;
      }

      .st1 {
        fill: #231f20;
      }
    </style>
  </defs>
  <g>
    <g>
      <path class="st1" d="M350.01,697.87l-214.88-105.94c-5.94-2.93-9.7-8.97-9.7-15.6V247.3c0-12.89,13.52-21.3,25.09-15.6l214.88,105.94c5.94,2.93,9.7,8.97,9.7,15.6v329.03c0,12.89-13.52,21.3-25.09,15.6h0Z"/>
      <path class="st1" d="M430.76,697.87l214.88-105.94c5.94-2.93,9.7-8.97,9.7-15.6V247.3c0-12.89-13.52-21.3-25.09-15.6l-214.88,105.94c-5.94,2.93-9.7,8.97-9.7,15.6v329.03c0,12.89,13.52,21.3,25.09,15.6h0Z"/>
    </g>
    <path class="st1" d="M390.64,796.56c-2.94,0-5.88-.71-8.57-2.09l-314.27-163.33c-6.15-3.19-10.01-9.56-10.01-16.49v-280.08c0-10.26,8.32-18.58,18.58-18.58s18.58,8.32,18.58,18.58v268.79l295.68,153.67,295.68-153.67v-268.79c0-10.26,8.32-18.58,18.58-18.58s18.58,8.32,18.58,18.58v280.08c0,6.94-3.86,13.3-10.01,16.49l-314.27,163.33c-2.69,1.4-5.63,2.09-8.57,2.09h.02Z"/>
  </g>
  <g>
    <path class="st1" d="M880.55,500.08h-102.31v-43.29h15.73v-94.24h-15.73v-43.29h110.5c21.66,0,38.43,1.25,50.3,3.77,11.7,2.6,20.89,7.76,27.55,15.47,6.67,7.88,10.01,17.08,10.01,27.55s-3.17,18.37-9.49,24.44c-6.5,6.24-14.39,10.57-23.65,13.01,12.74,3.82,22.54,9.7,29.38,17.68,6.94,8.15,10.4,17.29,10.4,27.43,0,12.14-3.9,22.44-11.7,30.94-7.8,8.41-18.5,13.91-32.11,16.51-13.43,2.69-33.07,4.03-58.89,4.03h.01ZM863.91,358.9v33.01h15.47c10.49,0,17.37-1.52,20.67-4.55,3.11-3.03,4.69-7.02,4.69-11.95,0-4.25-1.42-8.05-4.29-11.43s-10.7-5.07-23.53-5.07h-13.01,0ZM863.91,424.81v35.62h15.73c10.05,0,17.29-1.3,21.71-3.9,4.33-2.6,6.5-7.19,6.5-13.78,0-6.15-1.94-10.7-5.84-13.64-3.9-2.86-11.43-4.29-22.62-4.29h-15.48Z"/>
    <path class="st1" d="M1092.56,500.08h-89.31v-39.65h13.01v-46.8h-13.01v-39.65h78.39v86.44h10.92v39.65h0ZM1010.8,338.36c0-6.84,3.51-12.35,10.53-16.51,6.94-4.15,15.51-6.24,25.74-6.24s18.93,2.17,25.34,6.5c6.32,4.42,9.49,9.8,9.49,16.12,0,6.84-3.3,12.26-9.88,16.25-6.67,4.07-15.08,6.11-25.22,6.11s-18.89-1.86-25.74-5.59c-6.84-3.63-10.26-9.18-10.26-16.64h0Z"/>
    <path class="st1" d="M1210.85,500.08h-99.83v-39.65h16.25v-46.8h-16.25v-39.65h81.64v15.99c16.03-12.22,33.24-18.33,51.61-18.33,16.12,0,28.25,4.46,36.39,13.39,8.05,8.93,12.09,23.27,12.09,43.02v32.37h14.95v39.65h-80.33v-56.03c0-12.22-1.04-20.27-3.11-24.17-2.25-3.81-6.55-5.72-12.87-5.72-5.8,0-12.05,2.21-18.72,6.63v39.65h18.2v39.65h-.02Z"/>
    <path class="st1" d="M1519.46,460.43v39.65h-81.77v-8.45c-12.14,7.2-26.17,10.8-42.12,10.8-17.77,0-33.49-5.42-47.19-16.25-13.7-10.84-20.54-26.34-20.54-46.54,0-21.75,6.32-38.56,18.98-50.44,12.65-11.7,29.59-17.54,50.82-17.54,15.6,0,28.94,3.46,40.04,10.4v-23.14h-16.12v-39.65h81.5v141.17h16.4ZM1438.08,436.51c0-7.88-1.82-14.47-5.46-19.75-3.63-5.2-9.05-7.8-16.25-7.8-14.82,0-22.23,9.57-22.23,28.73,0,7.88,1.82,14.39,5.46,19.5,3.55,5.2,8.97,7.8,16.25,7.8,6.59,0,11.95-2.29,16.12-6.9,4.07-4.59,6.11-11.78,6.11-21.58h0Z"/>
    <path class="st1" d="M1646.07,460.17l53.95,6.63c-2.42,5.63-5.8,10.68-10.14,15.15-4.34,4.46-9.62,8.35-15.85,11.63-12.57,6.76-27.61,10.14-45.11,10.14-29.38,0-51.47-6.11-66.29-18.33-14.82-12.13-22.23-28.03-22.23-47.71s7.32-35.27,21.96-48.09c14.47-12.82,34.1-19.23,58.89-19.23s43.25,6.07,58.24,18.2c14.74,12.05,22.58,30.38,23.53,54.99h-99.32c.27,20.46,7.88,30.68,22.88,30.68,9.01,0,15.51-4.69,19.5-14.04h-.01v-.02ZM1604.47,427.15h36.79c.17-2.6.27-4.07.27-4.42,0-6.84-1.73-12.53-5.2-17.03-3.46-4.42-8.05-6.63-13.78-6.63s-10.4,2.42-13.52,7.28c-3.11,4.94-4.69,11.01-4.69,18.2,0,.96.04,1.82.13,2.6h0Z"/>
    <path class="st1" d="M1824.94,500.08h-101.66v-39.65h17.16v-46.8h-17.16v-39.65h78.26v31.59c2.94-7.88,7.49-14.7,13.64-20.41,5.9-5.63,11.87-9.32,17.94-11.05,5.8-1.65,14.34-2.48,25.61-2.48v55.51c-1.48-.08-3.3-.13-5.46-.13-13.35,0-23.27,1.34-29.76,4.03-6.76,2.77-11.35,6.42-13.78,10.92-2.52,4.69-3.82,10.84-3.9,18.46h19.11v39.65h-.01.01Z"/>
  </g>
  <g>
    <path class="st1" d="M880.32,694.04h-102.31v-43.29h15.73v-94.24h-15.73v-43.29h110.5c21.66,0,38.43,1.25,50.3,3.77,11.7,2.6,20.89,7.76,27.55,15.47,6.67,7.88,10.01,17.08,10.01,27.55s-3.17,18.37-9.49,24.44c-6.5,6.24-14.39,10.57-23.65,13.01,12.74,3.82,22.54,9.7,29.38,17.68,6.94,8.15,10.4,17.29,10.4,27.43,0,12.14-3.9,22.44-11.7,30.94-7.8,8.41-18.5,13.91-32.11,16.51-13.43,2.69-33.07,4.03-58.89,4.03h.01ZM863.68,552.87v33.01h15.47c10.49,0,17.37-1.52,20.67-4.55,3.11-3.03,4.69-7.02,4.69-11.95,0-4.25-1.42-8.05-4.29-11.43s-10.7-5.07-23.53-5.07h-13.01,0ZM863.68,618.78v35.62h15.73c10.05,0,17.29-1.3,21.71-3.9,4.33-2.6,6.5-7.19,6.5-13.78,0-6.15-1.94-10.7-5.84-13.64-3.9-2.86-11.43-4.29-22.62-4.29h-15.48Z"/>
    <path class="st1" d="M1055.43,603.17l-51.22-5.2c5.63-12.39,14.74-21.1,27.3-26.13,12.39-5.03,30.68-7.53,54.86-7.53,8.92,0,16.92.28,23.99.84s13.36,1.41,18.92,2.53c11.53,2.17,20.06,5.5,25.61,10.01,5.55,4.59,9.4,9.53,11.57,14.82,2.25,5.46,3.38,13.95,3.38,25.48v36.39h16.12v39.65h-81.5v-8.59c-11.26,7.28-26.34,10.92-45.23,10.92-17.77,0-31.16-3.9-40.17-11.7-9.1-7.8-13.64-17.03-13.64-27.69,0-11.78,5.59-21.44,16.77-28.99,11.09-7.53,25.56-11.31,43.42-11.31,16.29,0,29.24,2.13,38.87,6.38v-3.77c0-7.8-.56-13.26-1.69-16.37-1.21-3.29-3.9-6.11-8.05-8.45-4.34-2.25-9.36-3.38-15.08-3.38-10.49,0-18.54,4.03-24.17,12.09l-.03.03-.03-.03ZM1104.42,661.8v-23.02c-5.8-3.11-11.95-4.69-18.46-4.69-5.72,0-10.26,1.56-13.64,4.69-3.38,3.21-5.07,7.28-5.07,12.22s1.73,9.28,5.2,12.49c3.55,3.29,7.63,4.94,12.22,4.94,8.15,0,14.74-2.21,19.75-6.63h0Z"/>
    <path class="st1" d="M1249.5,695.59h-40.43v-40.04h37.83c9.7,10.22,20.33,15.33,31.85,15.33s17.42-2.38,17.42-7.15c0-2.42-1.25-4.29-3.77-5.59-2.6-1.38-9.49-3.42-20.67-6.11-9.01-2.42-18.98-5.24-29.9-8.45-9.45-2.69-16.91-6.07-22.36-10.14-5.63-4.07-9.4-8.05-11.31-11.95-2.08-3.9-3.11-9.01-3.11-15.33,0-13.95,4.94-24.23,14.82-30.8,9.8-6.5,22.23-9.74,37.31-9.74s28.69,2.94,39.25,8.84v-6.5h39.91v36.66h-36.91c-9.18-8.76-20.1-13.12-32.76-13.12-9.97,0-14.95,2.65-14.95,7.93,0,2.52,1.48,4.15,4.42,4.94,2.52.79,10.84,2.65,24.96,5.59,16.03,3.38,28.55,6.76,37.56,10.14,8.92,3.38,15.64,7.84,20.15,13.39,4.42,5.55,6.63,12.35,6.63,20.41,0,14.56-5.42,25.3-16.25,32.24-10.74,6.84-24,10.26-39.77,10.26s-28.99-2.86-39.91-8.59v7.8h-.01v-.02Z"/>
    <path class="st1" d="M1474.38,654.13l53.95,6.63c-2.42,5.63-5.8,10.68-10.14,15.15-4.34,4.46-9.62,8.35-15.85,11.63-12.57,6.76-27.61,10.14-45.11,10.14-29.38,0-51.47-6.11-66.29-18.33-14.82-12.13-22.23-28.03-22.23-47.71s7.32-35.27,21.96-48.09c14.47-12.82,34.1-19.23,58.89-19.23s43.25,6.07,58.24,18.2c14.74,12.05,22.58,30.38,23.53,54.99h-99.32c.27,20.46,7.88,30.68,22.88,30.68,9.01,0,15.51-4.69,19.5-14.04h-.01v-.02ZM1432.79,621.12h36.79c.17-2.6.27-4.07.27-4.42,0-6.84-1.73-12.53-5.2-17.03-3.46-4.42-8.05-6.63-13.78-6.63s-10.4,2.42-13.52,7.28c-3.11,4.94-4.69,11.01-4.69,18.2,0,.96.04,1.82.13,2.6h0Z"/>
  </g>
  <rect class="st0" x="122.32" y="658.59" width="1799.21" height="367.91"/>
</svg>