<?xml version="1.0" encoding="UTF-8"?>
<svg id="Layer_1" data-name="Layer 1" xmlns="http://www.w3.org/2000/svg" viewBox="0 0 1923.24 285.71">
  <path d="M112.6,71.58V4.1h45.02v180.08h-45.02v-67.48H45.02v67.58H0V4.1h45.02v67.48h67.58Z"/>
  <path d="M269.73,58.98l35.84-54.98h54.98l-68.16,90.82v90.72h-45.41v-90.72L178.91,4.1h55.18l35.64,54.88Z"/>
  <path d="M513.38,4.1c8.53,0,16.32,2.08,23.39,6.25,7.06,4.17,12.7,9.78,16.89,16.85,4.2,7.06,6.3,14.89,6.3,23.49v19.43c0,8.59-2.1,16.41-6.3,23.44s-9.83,12.65-16.89,16.85c-7.06,4.2-14.86,6.3-23.39,6.3h-88.38v67.48h-45.21v-112.79h45.21v.2h80.18c2.73,0,5.04-.94,6.93-2.83s2.83-4.17,2.83-6.84v-3.12c0-2.67-.94-4.95-2.83-6.84-1.89-1.89-4.2-2.83-6.93-2.83h-125.39V4.1h133.59Z"/>
  <path d="M588.57,49.12V4.1h180.08v45.02h-180.08ZM588.57,184.18v-112.6h180.08v45.12h-135.06v22.46h135.06v45.02h-180.08Z"/>
  <path d="M933.69,4.1c8.59,0,16.41,2.08,23.44,6.25,7.03,4.17,12.65,9.78,16.85,16.85,4.2,7.06,6.3,14.89,6.3,23.49v19.43c0,8.59-2.1,16.41-6.3,23.44s-9.81,12.65-16.85,16.85-14.84,6.3-23.44,6.3h-21l67.58,67.48h-67.48l-67.38-67.48v67.48h-45.21v-112.79h45.21v.2h80.18c2.67,0,4.95-.94,6.84-2.83s2.83-4.17,2.83-6.84v-3.12c0-2.67-.94-4.95-2.83-6.84-1.89-1.89-4.17-2.83-6.84-2.83h-125.39V4.1h133.5Z"/>
  <path d="M1100.2,4.1c12.43,0,24.09,2.34,34.96,7.03,10.87,4.69,20.43,11.13,28.66,19.34,8.24,8.2,14.7,17.76,19.38,28.66,4.69,10.91,7.03,22.58,7.03,35.01s-2.34,24.11-7.03,35.01c-4.69,10.91-11.15,20.48-19.38,28.71s-17.79,14.68-28.66,19.34c-10.87,4.65-22.53,6.98-34.96,6.98h-90.14v-112.6h45.02v67.58h45.12c8.27,0,15.8-2.02,22.61-6.05,6.8-4.04,12.24-9.47,16.31-16.31,4.07-6.84,6.1-14.39,6.1-22.66s-2.04-15.82-6.1-22.66c-4.07-6.84-9.51-12.27-16.31-16.31-6.8-4.04-14.34-6.05-22.61-6.05h-90.14V4.1h90.14Z"/>
  <path d="M1353.91,4.1c8.59,0,16.41,2.08,23.44,6.25,7.03,4.17,12.65,9.78,16.85,16.85,4.2,7.06,6.3,14.89,6.3,23.49v19.43c0,8.59-2.1,16.41-6.3,23.44s-9.81,12.65-16.85,16.85-14.84,6.3-23.44,6.3h-21l67.58,67.48h-67.48l-67.38-67.48v67.48h-45.21v-112.79h45.21v.2h80.18c2.67,0,4.95-.94,6.84-2.83,1.89-1.89,2.83-4.17,2.83-6.84v-3.12c0-2.67-.94-4.95-2.83-6.84-1.89-1.89-4.17-2.83-6.84-2.83h-125.39V4.1h133.5Z"/>
  <path d="M1430.27,184.18V4.1h45.02v180.08h-45.02Z"/>
  <path d="M1502.05,4.1h45.21l44.92,112.6,45.02-112.6h45.02l-67.58,180.08h-44.92L1502.05,4.1Z"/>
  <path d="M1711.62,49.12V4.1h180.08v45.02h-180.08ZM1711.62,184.18v-112.6h180.08v45.12h-135.06v22.46h135.06v45.02h-180.08Z"/>
  <path d="M673.98,217.66v-18.01h72.07v18.01h-72.07ZM673.98,271.68v-45.04h72.07v18.05h-53.98v26.99h-18.09Z"/>
  <path d="M758.24,217.66v-18.01h72.03v18.01h-72.03ZM758.24,271.68v-45.04h72.03v18.05h-54.02v8.98h54.02v18.01h-72.03Z"/>
  <path d="M842.89,216.76c0-3.15.77-6.02,2.3-8.61,1.54-2.59,3.6-4.65,6.19-6.19,2.59-1.54,5.46-2.3,8.61-2.3h54.92v18.01h-49.84c-1.17,0-2.16.41-2.97,1.23-.81.82-1.21,1.8-1.21,2.95v.51c0,1.2.42,2.21,1.27,3.05.85.83,1.86,1.25,3.03,1.25h32.27c3.2,0,6.13.79,8.77,2.36,2.64,1.58,4.75,3.69,6.33,6.33,1.58,2.64,2.36,5.58,2.36,8.81v9.96c0,3.26-.79,6.21-2.38,8.87-1.59,2.66-3.71,4.77-6.37,6.35-2.66,1.58-5.6,2.36-8.83,2.36h-54.45v-18.01h49.53c1.22,0,2.28-.44,3.16-1.31.88-.87,1.33-1.93,1.33-3.18s-.44-2.31-1.33-3.18c-.89-.87-1.94-1.31-3.16-1.31h-33.36c-2.97,0-5.68-.73-8.14-2.19-2.46-1.46-4.41-3.41-5.86-5.86-1.45-2.45-2.17-5.17-2.17-8.16v-11.72Z"/>
  <path d="M926.72,217.7v-18.01h72.07v18.01h-27.03v54.02h-18.01v-54.02h-27.03Z"/>
  <path d="M1010.9,271.68v-72.03h18.01v72.03h-18.01Z"/>
  <path d="M1039.61,199.65h18.09l17.97,45.04,18.01-45.04h18.01l-27.03,72.03h-17.97l-27.07-72.03Z"/>
  <path d="M1126.64,199.65h17.97l27.03,72.03h-18.01l-18.01-45.04-17.97,45.04h-18.05l27.03-72.03Z"/>
  <path d="M1201.64,199.65v54.02h35.98v18.01h-54.02v-72.03h18.05Z"/>
</svg>